<svg id="Layer_1" xmlns="http://www.w3.org/2000/svg" viewBox="-201 320.9 208.2 153.1"><style>.st0{opacity:.3;fill:#332322;enable-background:new}.st2{fill:#ffe6bb}.st3{fill:#1f110e}</style><path id="shadow" class="st0" d="M-4.5 387.2h-186.8c-6 5.8-9.7 13.9-9.7 22.9 0 16.7 12.9 30.5 29.3 31.9 2.2 17.8 18 32 36 32h77.6c18.1 0 33.9-14.3 36.1-32.2 15.3-2.3 27.2-15.7 27.2-31.6 0-9.1-3.7-17.2-9.7-23z"/><path id="fur" d="M-24.8 378.1c-3.3 0-6.4.5-9.5 1.6-7.9-18-15.3-24.2-33.1-28.2-7.2-1.6-11.7-9-15.5-25.5-.2-1.2-1.3-2.1-2.6-2.1-.8 0-1.6.4-2.1 1-2.1 2.8-6.4 9.5-7.3 16.9-1.5-1.8-3.1-4.6-4.1-8.5-.3-1.2-1.4-2-2.7-2-.7 0-1.4.3-1.9.8-1.7 1.7-5 5.8-4.9 11.9-.6-.6-1.1-1.3-1.5-2.2-.4-1-1.3-1.7-2.4-1.7-.9 0-1.9.5-2.5 1.2-.5.7-2.7 3.9-3.5 8.3-2.2.5-4.2 1-6 1.6-12.1 4.1-22.1 8.9-31.2 29-3.6-1.5-7.4-2.3-11.4-2.3-16 0-29 13-29 29s13 29 29 29h.1V436.7c1.2 17.1 16.1 31.1 33.2 31.1h77.6c17.1 0 32-13.9 33.2-31 0-.3.1-.6.1-.9 7-.5 13.6-3.5 18.6-8.5 5.5-5.5 8.5-12.7 8.5-20.5-.1-15.8-13.1-28.8-29.1-28.8z" fill="#93371f"/><path id="innerEarRight" class="st2" d="M-24.8 391.7c-1.7 0-3.4.3-5 .8 2.7 10.7 4.3 24.1 5 30 8.5 0 15.4-6.9 15.4-15.4s-6.9-15.4-15.4-15.4z"/><path id="innerEarLeft" class="st2" d="M-159.7 393.5c-2.2-1.2-4.7-1.8-7.3-1.8-8.5 0-15.4 6.9-15.4 15.4s6.9 15.4 15.4 15.4c.8 0 1.6-.1 2.4-.2.7-6.6 2.3-18.9 4.9-28.8z"/><g id="faceShadow"><path id="faceShadowLeft" class="st0" d="M-160.3 398.2l-4-.8c-3.1 9.8-5.6 23.6-4.1 40.5l3.8.6.6-19.4 3.7-20.9z"/><path id="faceShadowRight" class="st0" d="M-30.9 395.1l3.7-1c3.5 9.7 6.7 23.3 6.2 40.2l-3.5.8-1.7-19.4-4.7-20.6z"/></g><path id="face" class="st2" d="M-43.9 463.4c3.7-5.4 18-12.3 9-52.6-7.5-33.8-29.7-39.1-37.5-39.1-12.1 0-21.8 3.1-21.8 11.6 0-8.5-9.8-11.6-21.8-11.6-7.8 0-29.9 5.3-37.5 39.1-9 40.3 5.3 47.3 9 52.6l9.1 5.2h83l8.5-5.2z"/><g id="eyes"><path id="eyeLeft" class="st3" d="M-132.7 439.1c-2.6 0-4.7-2.6-4.7-5.8l.3-7.7c0-2.4 1.9-4.3 4.3-4.3s4.3 1.9 4.3 4.3l.3 7.7c.2 3.2-1.9 5.8-4.5 5.8z"/><path id="eyeRight" class="st3" d="M-55.2 438.9c-2.6 0-4.7-2.6-4.7-5.8l.3-7.7c0-2.4 1.9-4.3 4.3-4.3s4.3 2 4.3 4.3l.3 7.7c.1 3.1-2 5.8-4.5 5.8z"/></g><g id="eyebrows"><ellipse id="eyebrowLeft" transform="rotate(-129.978 -129.918 410.838)" class="st3" cx="-129.9" cy="410.8" rx="6.1" ry="3"/><ellipse id="eyebrowRight" transform="rotate(-39.977 -57.409 410.582)" class="st3" cx="-57.4" cy="410.6" rx="6.1" ry="3"/></g><path id="mouth" class="st3" d="M-68.8 445c-.2-.8-1.1-1.3-1.9-1-.8.2-1.3 1.1-1 1.9.9 3.3.6 6-1.1 8.1-2.3 2.8-6.6 3.9-9.5 3.7-6.1-.4-8.7-3.9-8.7-5.6 0-.8-.7-1.5-1.5-1.5s-1.5.7-1.5 1.5c0 1.7-2.6 5.2-8.7 5.6-3 .2-7.3-.9-9.5-3.7-1.7-2.1-2-4.8-1.1-8.1.2-.8-.2-1.6-1-1.9-.8-.2-1.6.2-1.9 1-1.5 5.3.1 8.8 1.7 10.8 2.7 3.4 7.4 4.9 11.2 4.9h.9c5-.3 8.2-2.4 10-4.7 1.7 2.3 5 4.4 10 4.7h.9c3.8 0 8.5-1.5 11.2-4.9 1.4-2 3-5.5 1.5-10.8z"/><g id="nose"><path id="nostrilLeft" class="st3" d="M-97 433.9c-.2.3-.4.6-.5.9-.4 1.2.9 2.2 2 1.7.3-.1.6-.3.8-.6.6-.6 1.1-2 1.1-3.1 0-.3-.2-.5-.5-.4-1 .2-2.4.8-2.9 1.5z"/><path id="nostrilRight" class="st3" d="M-88.4 433.9c.2.3.4.6.5.9.4 1.2-.9 2.2-2 1.7-.3-.1-.6-.3-.8-.6-.6-.6-1.1-2-1.1-3.1 0-.3.2-.5.5-.4 1 .2 2.3.8 2.9 1.5z"/></g><path id="outline" class="st3" d="M-24.8 375.1c-1.3 0-2.6.1-3.9.2-1.4-2.1-3.6-3.4-6.1-3.6-8.2-15.2-17.4-19.8-32-23.1-4.1-.9-8.9-4.4-13.2-23.3-.6-2.6-2.9-4.4-5.5-4.4-1.8 0-3.5.9-4.6 2.3-1.5 2-4 5.7-5.8 10.4-.1-.3-.2-.6-.3-1-.6-2.5-2.9-4.3-5.5-4.3-1.5 0-3 .6-4.1 1.6-1.3 1.3-3.5 3.9-4.8 7.6-.6-.2-1.3-.3-2-.3-1.9 0-3.8.9-4.9 2.5-.5.6-2.4 3.5-3.6 7.5-1.6.4-3.1.8-4.5 1.3-13.8 4.6-23 10.5-31.3 27.2h-.4c-.7 0-1.3.1-2 .3-2.6-.6-5.2-1-7.8-1-17.6 0-32 14.4-32 32 0 16.7 12.9 30.5 29.3 31.9 2.2 17.8 18 32 36 32h77.6c18.1 0 33.9-14.3 36.1-32.2 15.3-2.3 27.2-15.7 27.2-31.6.1-17.6-14.3-32-31.9-32zm-98.6-20.4a46 46 0 0 1 5.1-1.4c0 .7.1 1.5.2 2.3.7 3.9 2.9 7.2 6.7 9.8.7.5 1.6.3 2.1-.4s.3-1.6-.4-2.1c-3.1-2.1-4.9-4.7-5.4-7.8-.7-4.1 1-8.4 2.4-10.6 2.1 3.7 6.1 5 6.3 5 .5.2 1.1 0 1.5-.4.4-.4.6-.9.4-1.5-1.6-5.8.8-9.9 2.5-12 2.6 8.5 8 12 8.2 12.1.5.3 1.1.3 1.6 0s.8-.8.7-1.4c-.6-7.1 3.2-14.1 5.7-17.8 4.1 16.8 9.3 24.5 17.7 26.4 13.7 3.1 20.9 7 27.9 20.4l-110.9 3.7c8-16.5 16.7-20.6 27.7-24.3zm-43.6 79.4c-14.9 0-27-12.1-27-27s12.1-27 27-27c2.4 0 4.7.3 6.8.9-.1.1-6.3 17.4-6.3 17.4-.1.2-.1.4-.1.5 0 .8.4 1.6.9 2.2.6.6 1.3.9 2.2.9h.8c-2.5 9.3-4.3 20.1-3.8 32.1h-.5zm140.7 2.5c-1.1 15.3-14.4 27.8-29.7 27.8h-77.7c-15.3 0-28.7-12.5-29.7-27.8-.9-13 1-24.9 3.8-34.7l128.2-4.7c3.3 10.7 6.2 24.3 5.1 39.4zm3.1-2.6c.6-14.1-2-26.8-5.2-37 .9-.1 1.7-.6 2.2-1.4.6-.9.7-1.9.3-2.8l-4.4-12.2c1.8-.4 3.6-.6 5.5-.6 14.9 0 27 12.1 27 27 0 14.5-11.2 26.2-25.4 27z"/><path id="bandanaShadow" class="st0" d="M-154.5 377.5l-7.2 25.4 132-4.9-6.8-24.9-118 4.4z"/><path id="bandanaInner" d="M-157.7 382.4l-5.1 14.6c-.4 1.3.5 2.6 1.9 2.6l130.3-4.6c1.1 0 1.8-1.1 1.4-2.1l-5.6-14.5c-.2-.6-.8-1-1.5-1l-119.7 3.7c-.7 0-1.4.5-1.7 1.3z" fill="#fff"/><path id="bananaKanji" d="M-91.7 392c-.4 0-.7.3-.7.8 0 .4-.2.6-.2.6h-5.9c-.3 0-.6-.2-.6-.6v-1.7h4.9v.3c0 .4.3.7.7.7.4 0 .7-.3.7-.7v-4.3c0-.4-.3-.7-.7-.7h-6.3c-.4 0-.7.3-.7.7v5.6c0 1.1.9 2 2 2h5.9c.4 0 .8-.2 1.1-.5.3-.3.6-.8.6-1.6-.1-.3-.4-.6-.8-.6zm-2.6-2.4H-96v-1.7h1.7v1.7zm-4.8-1.7h1.7v1.7h-1.7v-1.7zm7.4-4.6h-2.6v-.4c0-.4-.3-.7-.7-.7-.4 0-.7.3-.7.7v.5h-1.9v-.5c0-.4-.3-.7-.7-.7-.4 0-.7.3-.7.7v.5h-2.3c-.4 0-.7.3-.7.7 0 .4.3.7.7.7h2.3v.6c0 .4.3.7.7.7.4 0 .7-.3.7-.7v-.6h1.9v.6c0 .4.3.7.7.7.4 0 .7-.3.7-.7v-.6h2.6c.4 0 .7-.3.7-.7 0-.4-.3-.8-.7-.8z" fill="#b11f24"/></svg>