<?xml version="1.0" encoding="utf-8"?>
<!-- Generator: Adobe Illustrator 19.1.0, SVG Export Plug-In . SVG Version: 6.00 Build 0)  -->
<svg version="1.1" id="Layer_1" xmlns="http://www.w3.org/2000/svg" xmlns:xlink="http://www.w3.org/1999/xlink" x="0px" y="0px"
	 viewBox="-201 320.9 208.2 153.1" style="enable-background:new -201 320.9 208.2 153.1;" xml:space="preserve">
<style type="text/css">
	.st0{opacity:0.3;fill:#332322;enable-background:new    ;}
	.st1{fill:#93371F;}
	.st2{fill:#FFE6BB;}
	.st3{fill:#1F110E;}
	.st4{fill:#FFFFFF;}
	.st5{fill:#B11F24;}
</style>
<g>
	<path id="shadow" class="st0" d="M-4.5,387.2h-186.8c-6,5.8-9.7,13.9-9.7,22.9c0,16.7,12.9,30.5,29.3,31.9c2.2,17.8,18,32,36,32
		h77.6c18.1,0,33.9-14.3,36.1-32.2c15.3-2.3,27.2-15.7,27.2-31.6C5.2,401.1,1.5,393-4.5,387.2L-4.5,387.2z"/>
	<path id="fur" class="st1" d="M-24.8,378.1c-3.3,0-6.4,0.5-9.5,1.6c-7.9-18-15.3-24.2-33.1-28.2c-7.2-1.6-11.7-9-15.5-25.5
		c-0.2-1.2-1.3-2.1-2.6-2.1c-0.8,0-1.6,0.4-2.1,1c-2.1,2.8-6.4,9.5-7.3,16.9c-1.5-1.8-3.1-4.6-4.1-8.5c-0.3-1.2-1.4-2-2.7-2
		c-0.7,0-1.4,0.3-1.9,0.8c-1.7,1.7-5,5.8-4.9,11.9c-0.6-0.6-1.1-1.3-1.5-2.2c-0.4-1-1.3-1.7-2.4-1.7c-0.9,0-1.9,0.5-2.5,1.2
		c-0.5,0.7-2.7,3.9-3.5,8.3c-2.2,0.5-4.2,1-6,1.6c-12.1,4.1-22.1,8.9-31.2,29c-3.6-1.5-7.4-2.3-11.4-2.3c-16,0-29,13-29,29
		s13,29,29,29h0.1v0.8c1.2,17.1,16.1,31.1,33.2,31.1h77.6c17.1,0,32-13.9,33.2-31c0-0.3,0.1-0.6,0.1-0.9c7-0.5,13.6-3.5,18.6-8.5
		c5.5-5.5,8.5-12.7,8.5-20.5C4.2,391.1-8.8,378.1-24.8,378.1L-24.8,378.1z"/>
	<path id="innerEarRight" class="st2" d="M-24.8,391.7c-1.7,0-3.4,0.3-5,0.8c2.7,10.7,4.3,24.1,5,30c8.5,0,15.4-6.9,15.4-15.4
		S-16.3,391.7-24.8,391.7z"/>
	<path id="innerEarLeft" class="st2" d="M-159.7,393.5c-2.2-1.2-4.7-1.8-7.3-1.8c-8.5,0-15.4,6.9-15.4,15.4s6.9,15.4,15.4,15.4
		c0.8,0,1.6-0.1,2.4-0.2C-163.9,415.7-162.3,403.4-159.7,393.5L-159.7,393.5z"/>
	<g id="faceShadow">
		<path id="faceShadowLeft" class="st0" d="M-160.3,398.2l-4-0.8c-3.1,9.8-5.6,23.6-4.1,40.5l3.8,0.6l0.6-19.4L-160.3,398.2
			L-160.3,398.2z"/>
		<path id="faceShadowRight" class="st0" d="M-30.9,395.1l3.7-1c3.5,9.7,6.7,23.3,6.2,40.2l-3.5,0.8l-1.7-19.4
			C-26.2,415.7-30.9,395.1-30.9,395.1z"/>
	</g>
	<path id="face" class="st2" d="M-43.9,463.4c3.7-5.4,18-12.3,9-52.6c-7.5-33.8-29.7-39.1-37.5-39.1c-12.1,0-21.8,3.1-21.8,11.6
		c0-8.5-9.8-11.6-21.8-11.6c-7.8,0-29.9,5.3-37.5,39.1c-9,40.3,5.3,47.3,9,52.6l9.1,5.2h83C-52.4,468.6-43.9,463.4-43.9,463.4z"/>
	<g id="eyes">
		<path id="eyeLeft" class="st3" d="M-132.7,439.1c-2.6,0-4.7-2.6-4.7-5.8l0.3-7.7c0-2.4,1.9-4.3,4.3-4.3s4.3,1.9,4.3,4.3l0.3,7.7
			C-128,436.5-130.1,439.1-132.7,439.1L-132.7,439.1z"/>
		<path id="eyeRight" class="st3" d="M-55.2,438.9c-2.6,0-4.7-2.6-4.7-5.8l0.3-7.7c0-2.4,1.9-4.3,4.3-4.3s4.3,2,4.3,4.3l0.3,7.7
			C-50.6,436.2-52.7,438.9-55.2,438.9z"/>
	</g>
	<g id="eyebrows">
		
			<ellipse id="eyebrowLeft" transform="matrix(-0.7663 0.6425 -0.6425 -0.7663 34.5104 809.144)" class="st3" cx="-129.9" cy="410.8" rx="3" ry="6.1"/>
		
			<ellipse id="eyebrowRight" transform="matrix(-0.6425 -0.7663 0.7663 -0.6425 -408.8172 630.4456)" class="st3" cx="-57.3" cy="410.6" rx="3" ry="6.1"/>
	</g>
	<path id="mouth" class="st3" d="M-68.8,445c-0.2-0.8-1.1-1.3-1.9-1c-0.8,0.2-1.3,1.1-1,1.9c0.9,3.3,0.6,6-1.1,8.1
		c-2.3,2.8-6.6,3.9-9.5,3.7c-6.1-0.4-8.7-3.9-8.7-5.6c0-0.8-0.7-1.5-1.5-1.5s-1.5,0.7-1.5,1.5c0,1.7-2.6,5.2-8.7,5.6
		c-3,0.2-7.3-0.9-9.5-3.7c-1.7-2.1-2-4.8-1.1-8.1c0.2-0.8-0.2-1.6-1-1.9c-0.8-0.2-1.6,0.2-1.9,1c-1.5,5.3,0.1,8.8,1.7,10.8
		c2.7,3.4,7.4,4.9,11.2,4.9h0.9c5-0.3,8.2-2.4,10-4.7c1.7,2.3,5,4.4,10,4.7h0.9c3.8,0,8.5-1.5,11.2-4.9
		C-68.9,453.8-67.3,450.3-68.8,445z"/>
	<g id="nose">
		<path id="nostrilLeft" class="st3" d="M-97,433.9c-0.2,0.3-0.4,0.6-0.5,0.9c-0.4,1.2,0.9,2.2,2,1.7c0.3-0.1,0.6-0.3,0.8-0.6
			c0.6-0.6,1.1-2,1.1-3.1c0-0.3-0.2-0.5-0.5-0.4C-95.1,432.6-96.5,433.2-97,433.9z"/>
		<path id="nostrilRight" class="st3" d="M-88.4,433.9c0.2,0.3,0.4,0.6,0.5,0.9c0.4,1.2-0.9,2.2-2,1.7c-0.3-0.1-0.6-0.3-0.8-0.6
			c-0.6-0.6-1.1-2-1.1-3.1c0-0.3,0.2-0.5,0.5-0.4C-90.3,432.6-89,433.2-88.4,433.9z"/>
	</g>
	<path id="outline" class="st3" d="M-24.8,375.1c-1.3,0-2.6,0.1-3.9,0.2c-1.4-2.1-3.6-3.4-6.1-3.6c-8.2-15.2-17.4-19.8-32-23.1
		c-4.1-0.9-8.9-4.4-13.2-23.3c-0.6-2.6-2.9-4.4-5.5-4.4c-1.8,0-3.5,0.9-4.6,2.3c-1.5,2-4,5.7-5.8,10.4c-0.1-0.3-0.2-0.6-0.3-1
		c-0.6-2.5-2.9-4.3-5.5-4.3c-1.5,0-3,0.6-4.1,1.6c-1.3,1.3-3.5,3.9-4.8,7.6c-0.6-0.2-1.3-0.3-2-0.3c-1.9,0-3.8,0.9-4.9,2.5
		c-0.5,0.6-2.4,3.5-3.6,7.5c-1.6,0.4-3.1,0.8-4.5,1.3c-13.8,4.6-23,10.5-31.3,27.2h-0.4c-0.7,0-1.3,0.1-2,0.3c-2.6-0.6-5.2-1-7.8-1
		c-17.6,0-32,14.4-32,32c0,16.7,12.9,30.5,29.3,31.9c2.2,17.8,18,32,36,32h77.6c18.1,0,33.9-14.3,36.1-32.2
		c15.3-2.3,27.2-15.7,27.2-31.6C7.2,389.5-7.2,375.1-24.8,375.1z M-123.4,354.7c1.7-0.6,3.4-1,5.1-1.4c0,0.7,0.1,1.5,0.2,2.3
		c0.7,3.9,2.9,7.2,6.7,9.8c0.7,0.5,1.6,0.3,2.1-0.4c0.5-0.7,0.3-1.6-0.4-2.1c-3.1-2.1-4.9-4.7-5.4-7.8c-0.7-4.1,1-8.4,2.4-10.6
		c2.1,3.7,6.1,5,6.3,5c0.5,0.2,1.1,0,1.5-0.4c0.4-0.4,0.6-0.9,0.4-1.5c-1.6-5.8,0.8-9.9,2.5-12c2.6,8.5,8,12,8.2,12.1
		c0.5,0.3,1.1,0.3,1.6,0s0.8-0.8,0.7-1.4c-0.6-7.1,3.2-14.1,5.7-17.8c4.1,16.8,9.3,24.5,17.7,26.4c13.7,3.1,20.9,7,27.9,20.4
		l-110.9,3.7C-143.1,362.5-134.4,358.4-123.4,354.7L-123.4,354.7z M-167,434.1c-14.9,0-27-12.1-27-27c0-14.9,12.1-27,27-27
		c2.4,0,4.7,0.3,6.8,0.9c-0.1,0.1-6.3,17.4-6.3,17.4c-0.1,0.2-0.1,0.4-0.1,0.5c0,0.8,0.4,1.6,0.9,2.2c0.6,0.6,1.3,0.9,2.2,0.9h0.8
		c-2.5,9.3-4.3,20.1-3.8,32.1H-167L-167,434.1z M-26.3,436.6c-1.1,15.3-14.4,27.8-29.7,27.8h-77.7c-15.3,0-28.7-12.5-29.7-27.8
		c-0.9-13,1-24.9,3.8-34.7l128.2-4.7C-28.1,407.9-25.2,421.5-26.3,436.6L-26.3,436.6z M-23.2,434c0.6-14.1-2-26.8-5.2-37
		c0.9-0.1,1.7-0.6,2.2-1.4c0.6-0.9,0.7-1.9,0.3-2.8l-4.4-12.2c1.8-0.4,3.6-0.6,5.5-0.6c14.9,0,27,12.1,27,27
		C2.2,421.5-9,433.2-23.2,434z"/>
	<path id="bandanaShadow" class="st0" d="M-154.5,377.5l-7.2,25.4l132-4.9l-6.8-24.9L-154.5,377.5z"/>
	<path id="bandanaInner" class="st4" d="M-157.7,382.4l-5.1,14.6c-0.4,1.3,0.5,2.6,1.9,2.6l130.3-4.6c1.1,0,1.8-1.1,1.4-2.1
		l-5.6-14.5c-0.2-0.6-0.8-1-1.5-1l-119.7,3.7C-156.7,381.1-157.4,381.6-157.7,382.4z"/>
	<path id="bananaKanji" class="st5" d="M-91.7,392c-0.4,0-0.7,0.3-0.7,0.8c0,0.4-0.2,0.6-0.2,0.6h-5.9c-0.3,0-0.6-0.2-0.6-0.6v-1.7
		h4.9v0.3c0,0.4,0.3,0.7,0.7,0.7c0.4,0,0.7-0.3,0.7-0.7v-4.3c0-0.4-0.3-0.7-0.7-0.7h-6.3c-0.4,0-0.7,0.3-0.7,0.7v5.6
		c0,1.1,0.9,2,2,2h5.9c0.4,0,0.8-0.2,1.1-0.5c0.3-0.3,0.6-0.8,0.6-1.6C-91,392.3-91.3,392-91.7,392L-91.7,392z M-94.3,389.6H-96
		v-1.7h1.7C-94.3,387.9-94.3,389.6-94.3,389.6z M-99.1,387.9h1.7v1.7h-1.7V387.9z M-91.7,383.3h-2.6v-0.4c0-0.4-0.3-0.7-0.7-0.7
		c-0.4,0-0.7,0.3-0.7,0.7v0.5h-1.9v-0.5c0-0.4-0.3-0.7-0.7-0.7c-0.4,0-0.7,0.3-0.7,0.7v0.5h-2.3c-0.4,0-0.7,0.3-0.7,0.7
		s0.3,0.7,0.7,0.7h2.3v0.6c0,0.4,0.3,0.7,0.7,0.7c0.4,0,0.7-0.3,0.7-0.7v-0.6h1.9v0.6c0,0.4,0.3,0.7,0.7,0.7c0.4,0,0.7-0.3,0.7-0.7
		v-0.6h2.6c0.4,0,0.7-0.3,0.7-0.7C-91,383.7-91.3,383.3-91.7,383.3L-91.7,383.3z"/>
</g>
</svg>
