<svg id="Layer_1" xmlns="http://www.w3.org/2000/svg" viewBox="0 0 208.2 153.1"><style>.st0{opacity:0.3;fill:#332322;} .st1{fill:#93371F;} .st2{fill:#FFE6BB;} .st3{fill:#1F110E;} .st4{fill:#FFFFFF;} .st5{fill:#B11F24;}</style><path class="st0" d="M196.5 66.3H9.7C3.7 72.1 0 80.2 0 89.2c0 16.7 12.9 30.5 29.3 31.9 2.2 17.8 18 32 36 32h77.6c18.1 0 33.9-14.3 36.1-32.2 15.3-2.3 27.2-15.7 27.2-31.6 0-9.1-3.7-17.2-9.7-23z"/><path id="backcolor" class="st1" d="M203.2 86.2c0-14.9-12.1-27-27-27-3.8 0-7.3.8-10.6 2.2-8.3-19.6-15.7-25-32.5-28.8-7.7-1.7-12.8-8.8-17-27-.1-.6-.9-.7-1.2-.3-2.2 3-7.8 11.5-7 20.3 0 0-5.7-3.6-7.9-12.6-.1-.5-.9-.6-1.2-.3C97 14.5 93 19.4 95 27.1c0 0-4.4-1.4-5.9-5.4-.2-.6-1.1-.4-1.5.1-1 1.4-2.9 4.8-3.3 8.8-2.6.5-5 1.1-7.1 1.8-13 4.4-22.1 9.5-30.8 29.8-3.7-1.9-7.9-3-12.4-3-14.9 0-27 12.1-27 27s12.1 27 27 27c.7 0 1.3 0 2-.1 0 .9.1 1.8.1 2.7 1.1 16.1 15.1 29.2 31.2 29.2h77.6c16.1 0 30.1-13.2 31.2-29.2.1-.9.1-1.8.1-2.6 15-.1 27-12.1 27-27z"/><path class="st2" d="M176.2 70.8c-1.7 0-3.4.3-5 .8 2.7 10.7 4.3 24.1 5 30 8.5 0 15.4-6.9 15.4-15.4s-6.9-15.4-15.4-15.4zM41.3 72.6c-2.2-1.2-4.7-1.8-7.3-1.8-8.5 0-15.4 6.9-15.4 15.4s6.9 15.4 15.4 15.4c.8 0 1.6-.1 2.4-.2.7-6.6 2.3-18.9 4.9-28.8z"/><path class="st0" d="M40.7 77.3l-4-.8c-3.1 9.8-5.6 23.6-4.1 40.5l3.8.6.6-19.4 3.7-20.9zM170.1 74.2l3.7-1c3.5 9.7 6.7 23.3 6.2 40.2l-3.5.8-1.7-19.4-4.7-20.6z"/><path class="st2" d="M157.1 142.5c3.7-5.4 18-12.3 9-52.6-7.5-33.8-29.7-39.1-37.5-39.1-12.1 0-21.8 3.1-21.8 11.6 0-8.5-9.8-11.6-21.8-11.6-7.8 0-29.9 5.3-37.5 39.1-9 40.3 5.3 47.3 9 52.6l9.1 5.2h83l8.5-5.2z"/><path class="st3" d="M68.3 118.2c-2.6 0-4.7-2.6-4.7-5.8l.3-7.7c0-2.4 1.9-4.3 4.3-4.3s4.3 1.9 4.3 4.3l.3 7.7c.2 3.2-1.9 5.8-4.5 5.8zM145.8 118c-2.6 0-4.7-2.6-4.7-5.8l.3-7.7c0-2.4 1.9-4.3 4.3-4.3s4.3 2 4.3 4.3l.3 7.7c.1 3.1-2 5.8-4.5 5.8z"/><ellipse transform="rotate(-39.977 71.15 89.945)" class="st3" cx="71.1" cy="89.9" rx="3" ry="6.1"/><ellipse transform="rotate(50.022 143.61 89.675)" class="st3" cx="143.6" cy="89.7" rx="3" ry="6.1"/><path class="st3" d="M132.2 124.1c-.2-.8-1.1-1.3-1.9-1-.8.2-1.3 1.1-1 1.9.9 3.3.6 6-1.1 8.1-2.3 2.8-6.6 3.9-9.5 3.7-6.1-.4-8.7-3.9-8.7-5.6 0-.8-.7-1.5-1.5-1.5s-1.5.7-1.5 1.5c0 1.7-2.6 5.2-8.7 5.6-3 .2-7.3-.9-9.5-3.7-1.7-2.1-2-4.8-1.1-8.1.2-.8-.2-1.6-1-1.9-.8-.2-1.6.2-1.9 1-1.5 5.3.1 8.8 1.7 10.8 2.7 3.4 7.4 4.9 11.2 4.9h.9c5-.3 8.2-2.4 10-4.7 1.7 2.3 5 4.4 10 4.7h.9c3.8 0 8.5-1.5 11.2-4.9 1.4-2 3-5.5 1.5-10.8zM104 113c-.2.3-.4.6-.5.9-.4 1.2.9 2.2 2 1.7.3-.1.6-.3.8-.6.6-.6 1.1-2 1.1-3.1 0-.3-.2-.5-.5-.4-1 .2-2.4.8-2.9 1.5zM112.6 113c.2.3.4.6.5.9.4 1.2-.9 2.2-2 1.7-.3-.1-.6-.3-.8-.6-.6-.6-1.1-2-1.1-3.1 0-.3.2-.5.5-.4 1 .2 2.3.8 2.9 1.5z"/><path class="st0" d="M46.5 56.6L39.3 82l132-4.9-6.8-24.9z"/><path class="st4" d="M43 60.1l-6.5 18.8 137-4.8-6.9-17.8z"/><path class="st3" d="M176.2 54.2c-1.3 0-2.6.1-3.9.2-1.4-2.1-3.6-3.4-6.1-3.6-8.2-15.2-17.4-19.8-32-23.1-4.1-.9-8.9-4.4-13.2-23.3-.6-2.6-2.9-4.4-5.5-4.4-1.8 0-3.5.9-4.6 2.3-1.5 2-4 5.7-5.8 10.4-.1-.3-.2-.6-.3-1-.6-2.5-2.9-4.3-5.5-4.3-1.5 0-3 .6-4.1 1.6-1.3 1.3-3.5 3.9-4.8 7.6-.6-.2-1.3-.3-2-.3-1.9 0-3.8.9-4.9 2.5-.5.6-2.4 3.5-3.6 7.5-1.6.4-3.1.8-4.5 1.3-13.8 4.6-23 10.5-31.3 27.2h-.4c-.7 0-1.3.1-2 .3-2.6-.6-5.2-1-7.8-1-17.6 0-32 14.4-32 32 0 16.7 12.9 30.5 29.3 31.9 2.2 17.8 18 32 36 32h77.6c18.1 0 33.9-14.3 36.1-32.2 15.3-2.3 27.2-15.7 27.2-31.6.1-17.6-14.3-32-31.9-32zm-9.5 3.7l5.4 14.8-.1.2-50 1.8c1.3-2 2-4.5 2-7.1 0-3.6-1.4-6.9-3.8-9.2l44.8-1.5c.8 0 1.4.5 1.7 1zm-76.8 18c-1.7-1.7-2.9-4-3.2-6.6-.6-3.7.5-7.3 2.9-9.8l6.7-.2c-2.2 2.2-3.4 5.2-3.4 8.4 0 3 1.1 5.9 3.1 8l-6.1.2zm8.8-.3c-2.5-1.9-3.9-4.8-3.9-7.9 0-3.3 1.6-6.4 4.4-8.3.1 0 .1-.1.2-.2l10.4-.3c.1.1.2.2.3.2 3 1.8 4.8 5 4.8 8.6 0 2.9-1.2 5.6-3.4 7.5l-12.8.4zm18.2-8c0-3.5-1.5-6.7-4-8.9l6-.2c2.7 2.2 4.2 5.5 4.2 9.1 0 2.6-.8 5.1-2.3 7.1l-6.5.2c1.7-2 2.6-4.5 2.6-7.3zM77.6 33.8c1.5-.5 3.2-1 5.1-1.4 0 .7.1 1.5.2 2.3.7 3.9 2.9 7.2 6.7 9.8.7.5 1.6.3 2.1-.4s.3-1.6-.4-2.1c-3.1-2.1-4.9-4.7-5.4-7.8-.7-4.1 1-8.4 2.4-10.6 2.1 3.7 6.1 5 6.3 5 .5.2 1.1 0 1.5-.4.4-.4.6-.9.4-1.5-1.6-5.8.8-9.9 2.5-12 2.6 8.5 8 12 8.2 12.1.5.3 1.1.3 1.6 0s.8-.8.7-1.4c-.6-7.1 3.2-14.1 5.7-17.8 4.1 16.8 9.3 24.5 17.7 26.4 13.7 3.1 20.9 7 27.9 20.4L49.9 58.1c8-16.5 16.7-20.6 27.7-24.3zM43.1 61.5c.1-.2.4-.4.7-.4l44.4-1.5c-2.1 2.7-3.1 6.3-2.5 9.9.4 2.4 1.4 4.7 2.9 6.5l-51.4 1.9 5.9-16.4zM34 113.2c-14.9 0-27-12.1-27-27s12.1-27 27-27c2.4 0 4.7.3 6.8.9-.1.1-.2.3-.2.4v.1l-6.1 16.9c-.1.2-.1.4-.1.5 0 .8.4 1.6.9 2.2.6.6 1.3.9 2.2.9H38.3c-2.5 9.3-4.3 20.1-3.8 32.1H34zm140.7 2.5c-1.1 15.3-14.4 27.8-29.7 27.8H67.3c-15.3 0-28.7-12.5-29.7-27.8-.9-13 1-24.9 3.8-34.7l128.2-4.7c3.3 10.7 6.2 24.3 5.1 39.4zm3.1-2.6c.6-14.1-2-26.8-5.2-37 .9-.1 1.7-.6 2.2-1.4.6-.9.7-1.9.3-2.8l-4.4-12.2c1.8-.4 3.6-.6 5.5-.6 14.9 0 27 12.1 27 27 0 14.5-11.2 26.2-25.4 27z"/><path class="st5" d="M109.3 71.1c-.4 0-.7.3-.7.8 0 .4-.2.6-.2.6h-5.9c-.3 0-.6-.2-.6-.6v-1.7h4.9v.3c0 .4.3.7.7.7.4 0 .7-.3.7-.7v-4.3c0-.4-.3-.7-.7-.7h-6.3c-.4 0-.7.3-.7.7v5.6c0 1.1.9 2 2 2h5.9c.4 0 .8-.2 1.1-.5.3-.3.6-.8.6-1.6-.1-.3-.4-.6-.8-.6zm-2.6-2.4H105V67h1.7v1.7zm-4.8-1.7h1.7v1.7h-1.7V67zM109.3 62.4h-2.6V62c0-.4-.3-.7-.7-.7-.4 0-.7.3-.7.7v.5h-1.9V62c0-.4-.3-.7-.7-.7-.4 0-.7.3-.7.7v.5h-2.3c-.4 0-.7.3-.7.7 0 .4.3.7.7.7h2.3v.6c0 .4.3.7.7.7.4 0 .7-.3.7-.7v-.6h1.9v.6c0 .4.3.7.7.7.4 0 .7-.3.7-.7v-.6h2.6c.4 0 .7-.3.7-.7 0-.4-.3-.8-.7-.8z"/></svg>