<?xml version="1.0" encoding="utf-8"?>
<!-- Generator: Adobe Illustrator 19.1.0, SVG Export Plug-In . SVG Version: 6.00 Build 0)  -->
<svg version="1.1" id="Layer_1" xmlns="http://www.w3.org/2000/svg" xmlns:xlink="http://www.w3.org/1999/xlink" x="0px" y="0px"
	 viewBox="-855 464.9 208.2 153.1" style="enable-background:new -855 464.9 208.2 153.1;" xml:space="preserve">
<style type="text/css">
	.st0{opacity:0.3;fill:#332322;enable-background:new    ;}
	.st1{fill:#3FA4EF;}
	.st2{fill:#FFE6BB;}
	.st3{fill:#1F110E;}
	.st4{fill:#FFFFFF;}
	.st5{fill:#B11F24;}
</style>
<path class="st0" d="M-658.5,531.2h-186.8c-6,5.8-9.7,13.9-9.7,22.9c0,16.7,12.9,30.5,29.3,31.9c2.2,17.8,18,32,36,32h77.6
	c18.1,0,33.9-14.3,36.1-32.2c15.3-2.3,27.2-15.7,27.2-31.6C-648.8,545.1-652.5,537-658.5,531.2z"/>
<path id="backcolor" class="st1" d="M-651.8,551.1c0-14.9-12.1-27-27-27c-3.8,0-7.3,0.8-10.6,2.2c-8.3-19.6-15.7-25-32.5-28.8
	c-7.7-1.7-12.8-8.8-17-27c-0.1-0.6-0.9-0.7-1.2-0.3c-2.2,3-7.8,11.5-7,20.3c0,0-5.7-3.6-7.9-12.6c-0.1-0.5-0.9-0.6-1.2-0.3
	c-1.8,1.8-5.8,6.7-3.8,14.4c0,0-4.4-1.4-5.9-5.4c-0.2-0.6-1.1-0.4-1.5,0.1c-1,1.4-2.9,4.8-3.3,8.8c-2.6,0.5-5,1.1-7.1,1.8
	c-13,4.4-22.1,9.5-30.8,29.8c-3.7-1.9-7.9-3-12.4-3c-14.9,0-27,12.1-27,27c0,14.9,12.1,27,27,27c0.7,0,1.3,0,2-0.1
	c0,0.9,0.1,1.8,0.1,2.7c1.1,16.1,15.1,29.2,31.2,29.2h77.6c16.1,0,30.1-13.2,31.2-29.2c0.1-0.9,0.1-1.8,0.1-2.6
	C-663.8,578-651.8,566-651.8,551.1z"/>
<path class="st2" d="M-678.8,535.7c-1.7,0-3.4,0.3-5,0.8c2.7,10.7,4.3,24.1,5,30c8.5,0,15.4-6.9,15.4-15.4S-670.3,535.7-678.8,535.7
	z M-813.7,537.5c-2.2-1.2-4.7-1.8-7.3-1.8c-8.5,0-15.4,6.9-15.4,15.4s6.9,15.4,15.4,15.4c0.8,0,1.6-0.1,2.4-0.2
	C-817.9,559.7-816.3,547.4-813.7,537.5z"/>
<path class="st0" d="M-814.3,542.2l-4-0.8c-3.1,9.8-5.6,23.6-4.1,40.5l3.8,0.6l0.6-19.4C-818,563.1-814.3,542.2-814.3,542.2z
	 M-684.9,539.1l3.7-1c3.5,9.7,6.7,23.3,6.2,40.2l-3.5,0.8l-1.7-19.4L-684.9,539.1z"/>
<path class="st2" d="M-697.9,607.4c3.7-5.4,18-12.3,9-52.6c-7.5-33.8-29.7-39.1-37.5-39.1c-12.1,0-21.8,3.1-21.8,11.6
	c0-8.5-9.8-11.6-21.8-11.6c-7.8,0-29.9,5.3-37.5,39.1c-9,40.3,5.3,47.3,9,52.6l9.1,5.2h83L-697.9,607.4z"/>
<path class="st3" d="M-786.7,583.1c-2.6,0-4.7-2.6-4.7-5.8l0.3-7.7c0-2.4,1.9-4.3,4.3-4.3c2.4,0,4.3,1.9,4.3,4.3l0.3,7.7
	C-782,580.5-784.1,583.1-786.7,583.1z M-709.2,582.9c-2.6,0-4.7-2.6-4.7-5.8l0.3-7.7c0-2.4,1.9-4.3,4.3-4.3s4.3,2,4.3,4.3l0.3,7.7
	C-704.6,580.2-706.7,582.9-709.2,582.9L-709.2,582.9z"/>
<ellipse transform="matrix(-0.6425 -0.7663 0.7663 -0.6425 -1712.7456 310.6003)" class="st3" cx="-783.9" cy="554.8" rx="6.1" ry="3"/>
<ellipse transform="matrix(0.7663 -0.6425 0.6425 0.7663 -522.5803 -327.4688)" class="st3" cx="-711.4" cy="554.6" rx="6.1" ry="3"/>
<path class="st3" d="M-722.8,589c-0.2-0.8-1.1-1.3-1.9-1c-0.8,0.2-1.3,1.1-1,1.9c0.9,3.3,0.6,6-1.1,8.1c-2.3,2.8-6.6,3.9-9.5,3.7
	c-6.1-0.4-8.7-3.9-8.7-5.6c0-0.8-0.7-1.5-1.5-1.5s-1.5,0.7-1.5,1.5c0,1.7-2.6,5.2-8.7,5.6c-3,0.2-7.3-0.9-9.5-3.7
	c-1.7-2.1-2-4.8-1.1-8.1c0.2-0.8-0.2-1.6-1-1.9c-0.8-0.2-1.6,0.2-1.9,1c-1.5,5.3,0.1,8.8,1.7,10.8c2.7,3.4,7.4,4.9,11.2,4.9h0.9
	c5-0.3,8.2-2.4,10-4.7c1.7,2.3,5,4.4,10,4.7h0.9c3.8,0,8.5-1.5,11.2-4.9C-722.9,597.8-721.3,594.3-722.8,589z M-751,577.9
	c-0.2,0.3-0.4,0.6-0.5,0.9c-0.4,1.2,0.9,2.2,2,1.7c0.3-0.1,0.6-0.3,0.8-0.6c0.6-0.6,1.1-2,1.1-3.1c0-0.3-0.2-0.5-0.5-0.4
	C-749.1,576.6-750.5,577.2-751,577.9z M-742.4,577.9c0.2,0.3,0.4,0.6,0.5,0.9c0.4,1.2-0.9,2.2-2,1.7c-0.3-0.1-0.6-0.3-0.8-0.6
	c-0.6-0.6-1.1-2-1.1-3.1c0-0.3,0.2-0.5,0.5-0.4C-744.3,576.6-743,577.2-742.4,577.9z"/>
<path class="st0" d="M-808.5,521.5l-7.2,25.4l132-4.9l-6.8-24.9L-808.5,521.5z"/>
<path class="st4" d="M-812,525l-6.5,18.8l137-4.8l-6.9-17.8L-812,525z"/>
<path class="st3" d="M-678.8,519.1c-1.3,0-2.6,0.1-3.9,0.2c-1.4-2.1-3.6-3.4-6.1-3.6c-8.2-15.2-17.4-19.8-32-23.1
	c-4.1-0.9-8.9-4.4-13.2-23.3c-0.6-2.6-2.9-4.4-5.5-4.4c-1.8,0-3.5,0.9-4.6,2.3c-1.5,2-4,5.7-5.8,10.4c-0.1-0.3-0.2-0.6-0.3-1
	c-0.6-2.5-2.9-4.3-5.5-4.3c-1.5,0-3,0.6-4.1,1.6c-1.3,1.3-3.5,3.9-4.8,7.6c-0.6-0.2-1.3-0.3-2-0.3c-1.9,0-3.8,0.9-4.9,2.5
	c-0.5,0.6-2.4,3.5-3.6,7.5c-1.6,0.4-3.1,0.8-4.5,1.3c-13.8,4.6-23,10.5-31.3,27.2h-0.4c-0.7,0-1.3,0.1-2,0.3c-2.6-0.6-5.2-1-7.8-1
	c-17.6,0-32,14.4-32,32c0,16.7,12.9,30.5,29.3,31.9c2.2,17.8,18,32,36,32h77.6c18.1,0,33.9-14.3,36.1-32.2
	c15.3-2.3,27.2-15.7,27.2-31.6C-646.8,533.5-661.2,519.1-678.8,519.1z M-688.3,522.8l5.4,14.8l-0.1,0.2l-50,1.8c1.3-2,2-4.5,2-7.1
	c0-3.6-1.4-6.9-3.8-9.2l44.8-1.5C-689.2,521.8-688.6,522.3-688.3,522.8L-688.3,522.8z M-765.1,540.8c-1.7-1.7-2.9-4-3.2-6.6
	c-0.6-3.7,0.5-7.3,2.9-9.8l6.7-0.2c-2.2,2.2-3.4,5.2-3.4,8.4c0,3,1.1,5.9,3.1,8L-765.1,540.8z M-756.3,540.5
	c-2.5-1.9-3.9-4.8-3.9-7.9c0-3.3,1.6-6.4,4.4-8.3c0.1,0,0.1-0.1,0.2-0.2l10.4-0.3c0.1,0.1,0.2,0.2,0.3,0.2c3,1.8,4.8,5,4.8,8.6
	c0,2.9-1.2,5.6-3.4,7.5L-756.3,540.5z M-738.1,532.5c0-3.5-1.5-6.7-4-8.9l6-0.2c2.7,2.2,4.2,5.5,4.2,9.1c0,2.6-0.8,5.1-2.3,7.1
	l-6.5,0.2C-739,537.8-738.1,535.3-738.1,532.5z M-777.4,498.7c1.5-0.5,3.2-1,5.1-1.4c0,0.7,0.1,1.5,0.2,2.3c0.7,3.9,2.9,7.2,6.7,9.8
	c0.7,0.5,1.6,0.3,2.1-0.4c0.5-0.7,0.3-1.6-0.4-2.1c-3.1-2.1-4.9-4.7-5.4-7.8c-0.7-4.1,1-8.4,2.4-10.6c2.1,3.7,6.1,5,6.3,5
	c0.5,0.2,1.1,0,1.5-0.4c0.4-0.4,0.6-0.9,0.4-1.5c-1.6-5.8,0.8-9.9,2.5-12c2.6,8.5,8,12,8.2,12.1c0.5,0.3,1.1,0.3,1.6,0
	c0.5-0.3,0.8-0.8,0.7-1.4c-0.6-7.1,3.2-14.1,5.7-17.8c4.1,16.8,9.3,24.5,17.7,26.4c13.7,3.1,20.9,7,27.9,20.4l-110.9,3.7
	C-797.1,506.5-788.4,502.4-777.4,498.7z M-811.9,526.4c0.1-0.2,0.4-0.4,0.7-0.4l44.4-1.5c-2.1,2.7-3.1,6.3-2.5,9.9
	c0.4,2.4,1.4,4.7,2.9,6.5l-51.4,1.9L-811.9,526.4z M-821,578.1c-14.9,0-27-12.1-27-27c0-14.9,12.1-27,27-27c2.4,0,4.7,0.3,6.8,0.9
	c-0.1,0.1-0.2,0.3-0.2,0.4v0.1l-6.1,16.9c-0.1,0.2-0.1,0.4-0.1,0.5c0,0.8,0.4,1.6,0.9,2.2c0.6,0.6,1.3,0.9,2.2,0.9h0.8
	c-2.5,9.3-4.3,20.1-3.8,32.1H-821z M-680.3,580.6c-1.1,15.3-14.4,27.8-29.7,27.8h-77.7c-15.3,0-28.7-12.5-29.7-27.8
	c-0.9-13,1-24.9,3.8-34.7l128.2-4.7C-682.1,551.9-679.2,565.5-680.3,580.6L-680.3,580.6z M-677.2,578c0.6-14.1-2-26.8-5.2-37
	c0.9-0.1,1.7-0.6,2.2-1.4c0.6-0.9,0.7-1.9,0.3-2.8l-4.4-12.2c1.8-0.4,3.6-0.6,5.5-0.6c14.9,0,27,12.1,27,27
	C-651.8,565.5-663,577.2-677.2,578L-677.2,578z"/>
<path class="st5" d="M-745.7,536c-0.4,0-0.7,0.3-0.7,0.8c0,0.4-0.2,0.6-0.2,0.6h-5.9c-0.3,0-0.6-0.2-0.6-0.6v-1.7h4.9v0.3
	c0,0.4,0.3,0.7,0.7,0.7c0.4,0,0.7-0.3,0.7-0.7v-4.3c0-0.4-0.3-0.7-0.7-0.7h-6.3c-0.4,0-0.7,0.3-0.7,0.7v5.6c0,1.1,0.9,2,2,2h5.9
	c0.4,0,0.8-0.2,1.1-0.5s0.6-0.8,0.6-1.6C-745,536.3-745.3,536-745.7,536z M-748.3,533.6h-1.7v-1.7h1.7
	C-748.3,531.9-748.3,533.6-748.3,533.6z M-753.1,531.9h1.7v1.7h-1.7V531.9z M-745.7,527.3h-2.6v-0.4c0-0.4-0.3-0.7-0.7-0.7
	s-0.7,0.3-0.7,0.7v0.5h-1.9v-0.5c0-0.4-0.3-0.7-0.7-0.7c-0.4,0-0.7,0.3-0.7,0.7v0.5h-2.3c-0.4,0-0.7,0.3-0.7,0.7
	c0,0.4,0.3,0.7,0.7,0.7h2.3v0.6c0,0.4,0.3,0.7,0.7,0.7c0.4,0,0.7-0.3,0.7-0.7v-0.6h1.9v0.6c0,0.4,0.3,0.7,0.7,0.7
	c0.4,0,0.7-0.3,0.7-0.7v-0.6h2.6c0.4,0,0.7-0.3,0.7-0.7C-745,527.7-745.3,527.3-745.7,527.3z"/>
</svg>
